<svg version="1" xmlns="http://www.w3.org/2000/svg" width="933.333" height="933.333" viewBox="0 0 700.000000 700.000000"><path d="M236.7 3.6c-.2.2-2.1.6-4.3 1-21 3.3-51.9 25.3-77.4 55-15.6 18.1-37.4 49-47.4 66.9-.9 1.6-2.6 4.6-3.8 6.5-6.7 11-26 48.7-32.2 63-1.6 3.6-3.7 8.5-4.8 10.9C53.4 236.8 34.7 294 30.6 317c-.2 1.4-.7 3.7-1.1 5.2-.5 2 .5 5.6 3.8 14 2.5 6.2 5.8 15.6 7.3 20.8 3.9 13.8 7.2 26.5 7 26.7-.1.2-1.8-3.2-3.6-7.4-3.2-7.2-14-27.9-18-34.6l-1.8-2.9-5.4 16.9c-3 9.2-5.2 17.2-4.8 17.8 1.5 2.1 8.1 18.6 11 27.2 3.8 11.8 10.3 36.3 9.7 37-.3.2-.8-1.1-1.2-2.9-.9-4.4-8.8-20.6-17-35.2-6.9-12-7.6-12.6-8.9-6.5-.3 1.3-1.4 6.7-2.6 11.9-1.1 5.2-2.3 12.5-2.6 16.1-.5 5.7-.3 7.2 1.9 11.5 6.5 12.9 18.2 58.7 22.3 87.4.4 3 .8 5.7.9 6 1.2 4.2 1.7 15.5 2 45.5.2 19.8.7 38.5.9 41.5 2 20.5 2.4 24.7 3.8 34 .6 4.1 1.2 8.4 1.3 9.5C37.3 670 44.3 697 46 697c.3 0 1.4-.6 2.3-1.2 1.6-1.2 1.6-1.7-.3-8.2-2.3-8.2-5.7-24.1-6.5-31.1-.3-2.8-.8-6.4-1-8.1-1.9-14-3.6-58.6-2.3-60 .3-.2 24.9-.4 54.9-.5 60.8-.1 58.8.1 66-7.3 6.3-6.6 7-10.2 6.6-35.7-.1-12.3-.6-23.5-1-24.8-2-7.2-9.3-13.8-17.2-15.7-2.2-.5-20.8-1-41.2-.9-20.5 0-37.3-.1-37.3-.3 0-.6 5.5-7.7 8.7-11.2l3.2-3.5 32.9-.1h32.9l5.9-3c7.4-3.7 11.9-9.9 12.9-17.7.4-2.9.5-14.8.3-26.3-.3-18.5-.5-21.2-2.2-23.7l-1.9-2.8 5.1-7.2c2.9-4 8.3-11.8 12.2-17.5 3.9-5.6 7.4-10.2 7.7-10.2.4 0 1.9 1.1 3.3 2.5 1.5 1.4 4.9 3.4 7.6 4.4 4.6 1.7 9.2 1.8 66.4 1.7 60.6-.2 61.6-.2 65.5-2.3 5-2.7 7.6-5.1 10.6-10 2.3-3.7 2.4-4.5 2.7-28.2.4-27.9 0-30.1-6.9-37-6.9-6.8-7.6-6.9-54.6-7-23 0-42.8 0-44-.1-2.1 0-2-.3 1.7-6.7 2.2-3.6 4.3-7 4.7-7.4.5-.5 18.4-.9 39.9-.9 24.4-.1 40.4-.5 42.5-1.1 6.1-1.9 11.2-6.1 14.1-11.8l2.8-5.3v-23.9c0-26.5-.4-28.6-6.3-34.7-6.7-7-8.9-7.5-30.9-7.6-10.9-.1-19.8-.3-19.8-.6s1.2-3.7 2.7-7.7l2.7-7.1 18.1-.4 18.1-.3 4.9-3.5c3.4-2.4 5.9-5.2 7.8-9l2.7-5.4v-22.9c0-25.5-.5-28.6-5.7-34.6-4.6-5.5-10.4-8-18.8-8.3l-6.9-.3-.2-11.6c-.4-22.8-4.7-39.5-14.4-55.5-9.9-16.4-24.7-28.1-41.9-33-2.5-.7-17.8-1.3-18.4-.8zm21.6 59.1c-5.7 6.1-17.9 21.3-22.6 28-2.1 2.9-5.2 7.4-7 10-6 8.6-22.2 34.6-28.9 46.3-16.7 29.4-40.8 75.6-50.6 97-1.6 3.6-5.1 11-7.7 16.5-14.3 30.4-29.9 67.9-40.5 98-18.6 52.3-35.8 114-44.7 160-.3 1.6-3.3 8.7-6.8 15.6-4 8-6.7 14.9-7.5 19.2-1.3 7.2-3 9.2-2.4 2.9 2.2-23.9 4.4-42.1 7-57.7.8-5 1.7-10.4 2-12 .2-1.7.9-5.3 1.4-8 .5-2.8 1.2-6.6 1.5-8.5 2.1-12.8 11.8-53.4 18.1-76 9-31.8 21.7-69.2 29.9-87.5.7-1.7 4.7-10.7 8.8-20.1 13.4-30.6 27.1-57.4 49.3-96.9 1.5-2.8 3.2-5.2 3.6-5.3.4-.2.8-.8.8-1.3 0-1 2.4-4.9 14.8-23.9 11.6-17.9 36.2-51.5 40.1-55 .4-.3 3.1-3.4 6-7 6.5-7.8 37.6-39 38.9-39 .5 0-1.1 2.1-3.5 4.7zM182 355.8v6.9l-8 1.9-8 2v-10.3l7.8-3.5c4.2-2 7.8-3.7 8-3.7.1-.1.2 3 .2 6.7zM381 105.1c-9 1-15.7 5.6-19.6 13.7-1.6 3.2-1.9 6.7-2 26.8-.1 20.5.1 23.7 1.8 28.3 2.3 6.1 6.6 10.7 12.6 13.2 4.1 1.8 7.9 1.9 65.4 1.9 43.9 0 62.2-.3 65-1.2 5.6-1.7 12.3-7.9 14.4-13.5 1.6-4.1 1.8-8 1.8-27.3 0-16-.4-23.6-1.3-26.4-1.8-5.3-7.7-11.5-13.1-13.9-4.3-2-6.6-2.1-62-2.1-31.6-.1-60 .2-63 .5zM556.8 105.1c-6 .9-9.7 2.9-14 7.7-5.6 6.3-6.1 9-6.2 34.2 0 25.1.5 27.9 6.1 34.1 7.1 7.9 2.3 7.4 72.8 7.7 70.3.3 67.8.5 75-6.6 6.6-6.5 6.9-8 7.1-33.7.2-25.9-.4-29.7-5.9-35.7-1.8-2.1-5.6-4.7-8.3-5.9-4.9-2.2-5.5-2.2-63.5-2.3-32.2-.1-60.6.2-63.1.5zM376.3 205.6c-5.8 1.5-11.2 6-14.3 12-2.5 4.8-2.5 5.1-2.5 29.4 0 21.8.3 24.9 1.9 28 2.6 4.9 6.4 8.8 11.1 11.3 4 2.2 4.6 2.2 66 2.4 67.5.2 66.2.3 73.3-5.5 2-1.6 4.8-5.1 6.1-7.8 2.4-4.8 2.5-5.4 2.5-28.4 0-21.5-.2-23.9-2.1-28-2.6-5.9-5.7-9.2-11.3-12.1l-4.5-2.4h-60.9c-41.7 0-62.2.3-65.3 1.1zM555.4 205.1c-7.5 1.5-13.4 6.4-16.7 13.9-1.9 4.1-2.1 6.5-2 28.1 0 22.6.1 23.9 2.2 28 3 5.7 5.7 8.6 10.6 11.2 4 2.2 4.4 2.2 67.5 2.2 63.2 0 63.5 0 67.5-2.2 4.7-2.5 8.6-6.4 11.1-11.3 1.6-3.1 1.9-6.3 2-26.5.1-25.5-.5-29.5-5.6-35.7-1.6-2-5.1-4.7-7.7-5.9l-4.8-2.3-60.6-.1c-33.4 0-61.9.2-63.5.6zM377 305c-6.8 1.9-12.2 6.5-15.6 13-1.6 3-1.8 6.4-2 25.9-.1 12.3.3 24.2.8 26.5 1.7 7.7 8.8 15.4 15.9 17.3 4 1 123.1 1.1 126.9 0 7.4-2 14.9-9.6 16.6-16.7 1.3-5.7 1.1-43.9-.2-49.2-1.5-6-5.6-11.2-11.3-14.6l-4.6-2.7-62-.1c-34.1-.1-63.1.2-64.5.6zM552.7 305.6c-8.7 3.1-14.1 9.6-15.5 18.6-.4 2.9-.7 14.3-.6 25.3.1 22.4.9 25.9 7.3 32.3 6.9 6.8 4 6.6 72.6 6.7 66.8.2 65.1.3 72.2-5.1 1.8-1.4 4.5-4.6 6-7.2l2.8-4.7v-25c0-23.7-.1-25.2-2.2-29-2.8-5.2-6.8-8.9-12.2-11.4-4.3-1.9-6.7-2-65.5-1.9-48.7 0-61.9.3-64.9 1.4z"/><path d="M208.5 404c-14.2.8-21.2 5.3-25 15.9-1.2 3.4-1.5 9.2-1.5 26 0 11.9.5 23.2 1 25.2 2.3 8.2 9.7 15 18 16.6 2.5.5 31.3.8 64 .7l59.5-.1 4.8-2.3c5.7-2.7 10.9-8.5 12.5-13.9 1.6-5.2 1.6-47.6 0-52.2-3-8.9-10.5-14.7-20.1-15.5-8.1-.7-101.6-1-113.2-.4zM381 404.1c-6.5.7-10.5 2.6-14.8 7-6.4 6.5-6.7 7.9-6.7 34.4 0 16.6.4 25.1 1.3 27.6 1.7 4.8 7.5 10.7 13 13.2 4.6 2 5.9 2.1 66.2 2.1 59.7 0 61.6-.1 66-2.1 5.7-2.6 9.7-6.6 12.3-12.3 1.9-4.1 2.1-6.5 2.1-27.5.1-19.8-.2-23.7-1.7-27.7-2.3-5.8-9.3-12.4-15-13.9-4.4-1.2-112.7-1.9-122.7-.8zM560 404.1c-8.1.8-10.9 1.9-15.9 6.4-6.8 6.2-7.5 9.4-7.5 35.9 0 21.1.2 23.5 2.1 27.7 2.5 5.6 6.4 9.5 12.3 12.2 4.4 2 5.9 2.1 66.5 2.1h62l5.3-2.9c2.8-1.5 6.3-4.3 7.7-6.1 4.8-6.3 5.2-9.2 5.1-34.4-.1-22.6-.2-23.7-2.5-28-4-7.5-9.9-11.7-17.9-12.6-6.8-.8-109.5-1-117.2-.3zM201.9 504.1c-7.4 1.1-13.5 5.5-17.2 12.4-2.1 3.7-2.2 5.6-2.4 27.5-.2 13 .2 25.1.7 27 1.5 5.3 6 10.9 10.9 13.8l4.6 2.7 62.4.3c55.6.2 62.9.1 66.5-1.4 6.3-2.5 10.2-5.9 13-11.6 2.6-5.1 2.6-5.4 2.6-28.1 0-14.5-.4-24.4-1.2-26.8-1.6-5.4-7.1-11.5-12.6-14.1-4.7-2.2-5.3-2.2-63.7-2.2-32.5-.1-61.1.2-63.6.5zM377.9 504.3c-7 1.4-14.2 7.5-17 14.3-.8 1.9-1.3 10.9-1.4 25.9-.2 20.6 0 23.6 1.7 28.2 2.2 6 6.6 10.7 12.6 13.3 4.1 1.8 7.4 1.9 66 2h61.8l5.4-2.7c6.4-3.3 10.9-8.6 12.4-14.7.7-2.8 1.1-12.9 1.1-26.3-.1-19.6-.4-22.2-2.2-26.3-2.5-5.7-6.6-9.7-12.3-12.3-4.4-2-6.3-2.1-64.1-2.1-32.8-.1-61.6.3-64 .7zM556.5 504.1c-7.8 1.1-14.3 6.2-17.8 13.9-1.9 4.1-2.1 6.5-2 28 0 21.7.1 23.8 2.1 28 2.1 4.6 5.4 8.1 10.7 11.6 2.8 1.8 5.8 1.9 52.5 2.4 59.4.6 78.2.1 82.5-2.2 4.2-2.2 8.3-6.5 10.8-11.3 2-3.8 2.2-5.4 2.2-28.5 0-23.8-.1-24.6-2.4-29.3-2.8-5.8-9.8-11.3-15.6-12.3-4.6-.9-117.1-1.2-123-.3z"/></svg>